HIERARCHY
ROOT RootJoint
{
    OFFSET   0.000000   0.000000   0.000000
    CHANNELS 6 Xposition Yposition Zposition Xrotation Yrotation Zrotation
    JOINT pelvis_lowerback
    {
        OFFSET   0.000000   0.093605   0.000000
        CHANNELS 3 Xrotation Yrotation Zrotation
        JOINT lowerback_torso
        {
            OFFSET   0.000000   0.100000   0.000000
            CHANNELS 3 Xrotation Yrotation Zrotation
            JOINT torso_head
            {
                OFFSET   0.000000   0.282350   0.000000
                CHANNELS 3 Xrotation Yrotation Zrotation
                End Site
                {
                    OFFSET   0.000000   0.192650   0.000000
                }
            }
            JOINT rTorso_Clavicle
            {
                OFFSET  -0.001000   0.157500   0.000000
                CHANNELS 3 Xrotation Yrotation Zrotation
                JOINT rShoulder
                {
                    OFFSET  -0.117647   0.000000   0.000000
                    CHANNELS 3 Xrotation Yrotation Zrotation
                    JOINT rElbow
                    {
                        OFFSET  -0.245000   0.000000   0.000000
                        CHANNELS 3 Xrotation Yrotation Zrotation
                        JOINT rWrist
                        {
                            OFFSET  -0.240000   0.000000   0.000000
                            CHANNELS 3 Xrotation Yrotation Zrotation
                            End Site
                            {
                                OFFSET  -0.116353  -0.002500   0.000000
                            }
                        }
                    }
                }
            }
            JOINT lTorso_Clavicle
            {
                OFFSET   0.001000   0.157500   0.000000
                CHANNELS 3 Xrotation Yrotation Zrotation
                JOINT lShoulder
                {
                    OFFSET   0.117647   0.000000   0.000000
                    CHANNELS 3 Xrotation Yrotation Zrotation
                    JOINT lElbow
                    {
                        OFFSET   0.245000   0.000000   0.000000
                        CHANNELS 3 Xrotation Yrotation Zrotation
                        JOINT lWrist
                        {
                            OFFSET   0.240000   0.000000   0.000000
                            CHANNELS 3 Xrotation Yrotation Zrotation
                            End Site
                            {
                                OFFSET   0.116353  -0.002500   0.000000
                            }
                        }
                    }
                }
            }
        }
    }
    JOINT rHip
    {
        OFFSET  -0.100000  -0.051395   0.000000
        CHANNELS 3 Xrotation Yrotation Zrotation
        JOINT rKnee
        {
            OFFSET   0.000000  -0.410000   0.000000
            CHANNELS 3 Xrotation Yrotation Zrotation
            JOINT rAnkle
            {
                OFFSET   0.000000  -0.390000   0.000000
                CHANNELS 3 Xrotation Yrotation Zrotation
                JOINT rToeJoint
                {
                    OFFSET   0.000000  -0.050000   0.130000
                    CHANNELS 3 Xrotation Yrotation Zrotation
                    End Site
                    {
                        OFFSET  -0.010000   0.002000   0.060000
                    }
                }
            }
        }
    }
    JOINT lHip
    {
        OFFSET   0.100000  -0.051395   0.000000
        CHANNELS 3 Xrotation Yrotation Zrotation
        JOINT lKnee
        {
            OFFSET   0.000000  -0.410000   0.000000
            CHANNELS 3 Xrotation Yrotation Zrotation
            JOINT lAnkle
            {
                OFFSET   0.000000  -0.390000   0.000000
                CHANNELS 3 Xrotation Yrotation Zrotation
                JOINT lToeJoint
                {
                    OFFSET   0.000000  -0.050000   0.130000
                    CHANNELS 3 Xrotation Yrotation Zrotation
                    End Site
                    {
                        OFFSET   0.010000   0.002000   0.060000
                    }
                }
            }
        }
    }
}
MOTION
Frames: 15
Frame Time:   0.008333
 -2.456905   0.981857   5.149036   1.795237   0.547468  -5.649804   0.213689  -1.728385   1.605645  -2.639196   0.302847   4.942457  -4.586019   1.284359   3.318099   5.276146  -1.897245  11.566132   7.487160   8.699195  39.002186  -0.000242  27.941783   0.000072   5.463003   2.595294  -3.606844   3.384612  -2.007426 -11.720274   1.863865  -4.389585 -42.320820   0.001016 -30.785966   0.001555   4.714687  -3.225500   4.186173 -10.277406   1.424515   9.303116  10.023676   0.002030   0.004587  41.940752  -7.834597  -0.429318 -45.168669  -0.001559  -0.000219  -6.068661  -3.940236   9.936606  58.594955  -0.005639  -0.002611   7.830716  -1.345568  -1.401878 -12.576725  -0.004849   0.010712
 -2.458175   0.983497   5.154918   1.525867   0.105276  -5.429618   0.478264  -1.415964   1.533305  -2.733470   0.397976   4.799706  -4.535981   1.318936   3.365818   5.134731  -1.696093  11.508458   7.208868   8.860899  39.118608  -0.000117  27.841646  -0.000066   5.394729   2.583002  -3.496276   3.319630  -1.759922 -11.736982   1.974437  -4.168172 -42.266063   0.001157 -30.600158   0.001792   4.684399  -3.261885   4.160588  -9.524999   1.511666   9.168355   9.652759   0.001908   0.005233  42.398781  -7.411401  -0.574553 -45.134936  -0.001312  -0.000183  -7.096739  -3.858908   9.541994  59.389526  -0.005165  -0.003556   6.618460  -0.904923  -1.374984 -12.073865  -0.004693   0.009269
 -2.459411   0.985078   5.160618   1.269919  -0.338762  -5.206359   0.755526  -1.114678   1.456062  -2.817830   0.502780   4.648965  -4.491984   1.346858   3.405979   4.978618  -1.483983  11.449867   6.930217   9.029660  39.226500  -0.000024  27.753598  -0.000142   5.323769   2.559401  -3.403282   3.271740  -1.518885 -11.747754   2.088429  -3.949746 -42.215916   0.001201 -30.418500   0.001889   4.652589  -3.254910   4.123750  -8.792051   1.597599   9.019136   9.274987   0.001792   0.005773  42.858704  -7.002431  -0.710573 -45.107949  -0.001102  -0.000158  -8.152818  -3.779436   9.137431  60.013054  -0.004687  -0.004093   5.476894  -0.493513  -1.341127 -11.642358  -0.004413   0.007841
 -2.460641   0.986554   5.166206   1.008752  -0.784525  -4.998298   1.039790  -0.815615   1.381732  -2.880081   0.619672   4.503188  -4.447670   1.372514   3.442459   4.821042  -1.272888  11.388512   6.660943   9.196024  39.323451   0.000042  27.676197  -0.000173   5.256688   2.554895  -3.325792   3.234480  -1.287730 -11.756451   2.200601  -3.739936 -42.170427   0.001186 -30.245542   0.001901   4.620845  -3.224380   4.079381  -8.070628   1.680958   8.879383   8.922852   0.001675   0.006085  43.298349  -6.619814  -0.839336 -45.086359  -0.000922  -0.000139  -9.209069  -3.705833   8.749451  60.545443  -0.004290  -0.004402   4.408577  -0.110365  -1.302162 -11.251785  -0.004113   0.006521
 -2.461872   0.987923   5.171733   0.739500  -1.232708  -4.810219   1.322902  -0.519465   1.311259  -2.922841   0.745806   4.365651  -4.402826   1.396752   3.476694   4.667887  -1.068583  11.327235   6.404743   9.355652  39.411297   0.000091  27.606412  -0.000183   5.193537   2.563823  -3.258701   3.207074  -1.064707 -11.765004   2.310845  -3.538124 -42.129306   0.001133 -30.081064   0.001861   4.589437  -3.177800   4.031285  -7.359284   1.761885   8.754494   8.605166   0.001556   0.006181  43.712406  -6.260889  -0.960519 -45.069088  -0.000769  -0.000125 -10.248852  -3.638582   8.385312  61.013601  -0.003971  -0.004565   3.409872   0.246518  -1.259428 -10.896276  -0.003817   0.005327
 -2.463110   0.989191   5.177229   0.463562  -1.683177  -4.642756   1.598271  -0.228941   1.244069  -2.951084   0.877620   4.236822  -4.358481   1.419720   3.509010   4.522192  -0.873979  11.268547   6.163169   9.506645  39.492274   0.000127  27.542423  -0.000186   5.133751   2.579315  -3.197793   3.189015  -0.848705 -11.774169   2.419370  -3.343586 -42.092327   0.001057 -29.924493   0.001790   4.558354  -3.117306   3.981165  -6.658490   1.840594   8.644863   8.323196   0.001435   0.006103  44.101233  -5.923046  -1.074126 -45.055270  -0.000640  -0.000113 -11.261944  -3.577078   8.046342  61.430497  -0.003712  -0.004624   2.476560   0.578921  -1.214048 -10.572160  -0.003529   0.004265
 -2.464354   0.990368   5.182713   0.183408  -2.135389  -4.495032   1.861242   0.053321   1.179398  -2.969405   1.011871   4.116257  -4.315574   1.441438   3.539436   4.385433  -0.690439  11.213990   5.936664   9.648293  39.568091   0.000155  27.483134  -0.000189   5.076872   2.597197  -3.140104   3.179265  -0.639516 -11.784198   2.525978  -3.156151 -42.059244   0.000967 -29.775474   0.001699   4.527617  -3.044592   3.929792  -5.969355   1.917111   8.549231   8.075783   0.001315   0.005891  44.466904  -5.604487  -1.180443 -45.044216  -0.000532  -0.000102 -12.241673  -3.520359   7.731649  61.804537  -0.003493  -0.004606   1.604490   0.888492  -1.166967 -10.276458  -0.003252   0.003333
 -2.465477   0.991488   5.188105   0.000734  -2.587584  -4.261772   2.054237   0.309705   1.073649  -3.018417   1.129144   3.952684  -4.287560   1.460323   3.543997   4.177921  -0.547452  11.177004   5.565505   9.802786  39.689932   0.000493  27.247651  -0.000796   5.058123   2.558431  -3.008708   3.114382  -0.367821 -11.785177   2.662545  -2.950529 -42.052765   0.000990 -29.545357   0.001889   4.521085  -3.036788   3.811971  -5.377404   1.979351   8.349222   7.862431   0.001169   0.005608  44.669143  -5.247546  -1.403916 -45.035373  -0.000437  -0.000085 -13.189071  -3.410637   7.369757  61.463908  -0.002353  -0.002915   0.668722   1.331775  -1.127586 -10.009687  -0.002957   0.002947
 -2.466560   0.992481   5.193356  -0.157189  -3.006400  -4.044146   2.251856   0.551714   0.995440  -3.071816   1.246261   3.795909  -4.265316   1.475844   3.544066   3.963235  -0.397053  11.133100   5.203308   9.957306  39.795234   0.000702  27.029360  -0.001150   5.033621   2.489972  -2.914817   3.056180  -0.113631 -11.790905   2.792671  -2.756131 -42.053357   0.000986 -29.327051   0.001974   4.512137  -3.005595   3.684906  -4.810963   2.032960   8.155826   7.652831   0.001040   0.005308  44.820791  -4.913909  -1.609416 -45.028298  -0.000358  -0.000071 -14.149836  -3.319697   7.061545  60.948026  -0.001190  -0.001323  -0.215208   1.746429  -1.083895  -9.772297  -0.002654   0.002623
 -2.467618   0.993366   5.198513  -0.313550  -3.411061  -3.846626   2.456083   0.792919   0.935174  -3.113935   1.369643   3.654754  -4.243117   1.490311   3.545581   3.750763  -0.243867  11.086405   4.856250  10.109117  39.888076   0.000798  26.829034  -0.001312   5.010568   2.432910  -2.843550   3.003123   0.123598 -11.800991   2.915324  -2.574202 -42.057936   0.000965 -29.122391   0.001984   4.503132  -2.966848   3.555474  -4.253512   2.084343   7.975951   7.457463   0.000924   0.004982  44.938380  -4.598427  -1.797884 -45.022639  -0.000294  -0.000059 -15.107501  -3.245587   6.801894  60.392556  -0.000147  -0.000048  -1.043786   2.133079  -1.037641  -9.555376  -0.002377   0.002321
 -2.468653   0.994170   5.203618  -0.473774  -3.812472  -3.665387   2.660874   1.034607   0.885557  -3.143611   1.499844   3.528114  -4.219961   1.504233   3.548619   3.545121  -0.091890  11.042098   4.526534  10.256214  39.973366   0.000816  26.644543  -0.001361   4.989513   2.390179  -2.782829   2.957079   0.348354 -11.814156   3.032539  -2.401859 -42.064976   0.000934 -28.929879   0.001944   4.494179  -2.922169   3.426696  -3.701859   2.134363   7.806750   7.281291   0.000819   0.004637  45.033796  -4.299717  -1.971099 -45.018111  -0.000240  -0.000050 -16.047377  -3.184526   6.579783  59.839472   0.000756   0.000953  -1.819009   2.493583  -0.989796  -9.357500  -0.002131   0.002023
 -2.469665   0.994918   5.208702  -0.637914  -4.215229  -3.496824   2.860606   1.274747   0.842627  -3.163432   1.634960   3.413842  -4.196428   1.517621   3.552514   3.349074   0.056016  11.002817   4.215203  10.397174  40.054157   0.000785  26.474036  -0.001353   4.970168   2.358764  -2.725592   2.919113   0.563473 -11.829375   3.145804  -2.237059 -42.073729   0.000898 -28.748167   0.001871   4.485145  -2.869873   3.299655  -3.156471   2.182681   7.644931   7.126040   0.000724   0.004281  45.115659  -4.017780  -2.130902 -45.014489  -0.000197  -0.000043 -16.959567  -3.133551   6.386853  59.304228   0.001517   0.001738  -2.543825   2.829655  -0.941125  -9.177302  -0.001912   0.001728
 -2.470653   0.995622   5.213785  -0.804386  -4.620801  -3.338264   3.051198   1.510794   0.804326  -3.176442   1.772448   3.310166  -4.173263   1.530409   3.556770   3.164119   0.197943  10.969417   3.922545  10.531054  40.131976   0.000728  26.315983  -0.001319   4.952211   2.335460  -2.668260   2.889110   0.770214 -11.845886   3.255702  -2.078866 -42.083725   0.000858 -28.576385   0.001775   4.475983  -2.809290   3.174808  -2.618787   2.228839   7.487836   6.991920   0.000639   0.003919  45.189738  -3.752646  -2.278893 -45.011591  -0.000161  -0.000037 -17.837665  -3.090361   6.217207  58.793338   0.002139   0.002350  -3.221300   3.142897  -0.892249  -9.013369  -0.001717   0.001442
 -2.471517   0.996317   5.218867  -0.896538  -5.050837  -3.107473   3.181446   1.734104   0.747951  -3.206928   1.878967   3.164647  -4.200489   1.541817   3.533353   2.958064   0.325046  10.939156   3.598425  10.692868  40.189280   0.000804  26.123968  -0.001504   4.960229   2.296858  -2.505938   2.872049   1.006163 -11.847982   3.420782  -1.935233 -42.153853   0.000729 -28.269529   0.001685   4.497973  -2.846170   3.119256  -2.174169   2.247690   7.246880   6.924855   0.000534   0.003409  45.151303  -3.454966  -2.479502 -45.009273  -0.000131  -0.000032 -18.568381  -2.978183   6.031052  57.386444   0.004324   0.004349  -3.793097   3.574427  -0.878220  -8.808371  -0.001510   0.001470
 -2.472354   0.996896   5.223854  -0.964840  -5.438930  -2.900611   3.312240   1.933456   0.727459  -3.242845   1.975654   3.024452  -4.233532   1.549615   3.510081   2.753018   0.449607  10.887403   3.287497  10.847505  40.226434   0.000862  25.947223  -0.001582   4.966264   2.261208  -2.370488   2.867899   1.229506 -11.864809   3.585552  -1.795417 -42.236573   0.000564 -27.975411   0.001538   4.518532  -2.836436   3.032981  -1.755883   2.257290   7.026013   6.863394   0.000446   0.002958  45.076547  -3.174866  -2.661130 -45.007418  -0.000107  -0.000027 -19.300880  -2.892101   5.905395  55.829402   0.006342   0.005726  -4.335467   3.978170  -0.860886  -8.603268  -0.001308   0.001513
